<svg xmlns="http://www.w3.org/2000/svg" width="1920" height="1080"><path d="M121,-375L285,-329L839,-291Z" fill="#d0dfee" stroke="#d0dfee" stroke-width="1.51"/><path d="M1000,-275L1484,-282L1720,-359Z" fill="#bdaad2" stroke="#bdaad2" stroke-width="1.51"/><path d="M839,-291L1000,-275L1720,-359Z" fill="#beb7d8" stroke="#beb7d8" stroke-width="1.51"/><path d="M121,-375L839,-291L1720,-359Z" fill="#c0c9e2" stroke="#c0c9e2" stroke-width="1.51"/><path d="M1362,1353L874,1424L1782,1420Z" fill="#763c84" stroke="#763c84" stroke-width="1.51"/><path d="M1782,1420L874,1424L1970,1425Z" fill="#722e7c" stroke="#722e7c" stroke-width="1.51"/><path d="M1956,-202L2268,-52L2311,-336Z" fill="#a980ab" stroke="#a980ab" stroke-width="1.51"/><path d="M1720,-359L1956,-202L2311,-336Z" fill="#bb8aba" stroke="#bb8aba" stroke-width="1.51"/><path d="M2268,-52L2099,196L2337,225Z" fill="#906f9e" stroke="#906f9e" stroke-width="1.51"/><path d="M2064,358L2297,502L2337,225Z" fill="#836398" stroke="#836398" stroke-width="1.51"/><path d="M2099,196L2064,358L2337,225Z" fill="#8c6ca0" stroke="#8c6ca0" stroke-width="1.51"/><path d="M2311,-336L2268,-52L2337,225Z" fill="#95759e" stroke="#95759e" stroke-width="1.51"/><path d="M2059,877L2173,1135L2342,816Z" fill="#792f82" stroke="#792f82" stroke-width="1.51"/><path d="M2272,696L2077,738L2342,816Z" fill="#784187" stroke="#784187" stroke-width="1.51"/><path d="M2077,738L2059,877L2342,816Z" fill="#7d3d8a" stroke="#7d3d8a" stroke-width="1.51"/><path d="M2173,1135L2314,1313L2342,816Z" fill="#701e74" stroke="#701e74" stroke-width="1.51"/><path d="M2297,502L2272,696L2342,816Z" fill="#744685" stroke="#744685" stroke-width="1.51"/><path d="M2337,225L2297,502L2342,816Z" fill="#74538a" stroke="#74538a" stroke-width="1.51"/><path d="M2077,738L2272,696L2297,502Z" fill="#7b4c8d" stroke="#7b4c8d" stroke-width="1.51"/><path d="M2173,1135L1970,1425L2314,1313Z" fill="#71096d" stroke="#71096d" stroke-width="1.51"/><path d="M1993,41L2099,196L2268,-52Z" fill="#9d76a8" stroke="#9d76a8" stroke-width="1.51"/><path d="M2064,358L2077,738L2297,502Z" fill="#825897" stroke="#825897" stroke-width="1.51"/><path d="M1990,1165L1970,1425L2173,1135Z" fill="#7f0f7a" stroke="#7f0f7a" stroke-width="1.51"/><path d="M1956,-202L1993,41L2268,-52Z" fill="#aa7eb0" stroke="#aa7eb0" stroke-width="1.51"/><path d="M2064,358L1804,717L2077,738Z" fill="#8b589f" stroke="#8b589f" stroke-width="1.51"/><path d="M2059,877L1990,1165L2173,1135Z" fill="#802685" stroke="#802685" stroke-width="1.51"/><path d="M1000,-275L1241,-246L1484,-282Z" fill="#bbb2d6" stroke="#bbb2d6" stroke-width="1.51"/><path d="M1764,907L1990,1165L2059,877Z" fill="#863491" stroke="#863491" stroke-width="1.51"/><path d="M1736,392L1804,717L2064,358Z" fill="#8e68aa" stroke="#8e68aa" stroke-width="1.51"/><path d="M1808,248L2064,358L2099,196Z" fill="#9973ac" stroke="#9973ac" stroke-width="1.51"/><path d="M1993,41L1808,248L2099,196Z" fill="#9f78b0" stroke="#9f78b0" stroke-width="1.51"/><path d="M1804,717L2059,877L2077,738Z" fill="#894798" stroke="#894798" stroke-width="1.51"/><path d="M1808,248L1736,392L2064,358Z" fill="#9574b0" stroke="#9574b0" stroke-width="1.51"/><path d="M1804,717L1764,907L2059,877Z" fill="#88479a" stroke="#88479a" stroke-width="1.51"/><path d="M1782,1420L1970,1425L1990,1165Z" fill="#771677" stroke="#771677" stroke-width="1.51"/><path d="M1693,1130L1782,1420L1990,1165Z" fill="#832285" stroke="#832285" stroke-width="1.51"/><path d="M1764,907L1693,1130L1990,1165Z" fill="#863492" stroke="#863492" stroke-width="1.51"/><path d="M1956,-202L1721,-126L1993,41Z" fill="#b188bb" stroke="#b188bb" stroke-width="1.51"/><path d="M1721,-126L1808,248L1993,41Z" fill="#a783b9" stroke="#a783b9" stroke-width="1.51"/><path d="M1720,-359L1721,-126L1956,-202Z" fill="#b992c2" stroke="#b992c2" stroke-width="1.51"/><path d="M1037,1361L874,1424L1362,1353Z" fill="#7b4d8d" stroke="#7b4d8d" stroke-width="1.51"/><path d="M1693,1130L1562,1273L1782,1420Z" fill="#812a89" stroke="#812a89" stroke-width="1.51"/><path d="M1485,805L1764,907L1804,717Z" fill="#8a53a4" stroke="#8a53a4" stroke-width="1.51"/><path d="M1587,615L1485,805L1804,717Z" fill="#8c5fab" stroke="#8c5fab" stroke-width="1.51"/><path d="M1736,392L1587,615L1804,717Z" fill="#8c68ae" stroke="#8c68ae" stroke-width="1.51"/><path d="M1721,-126L1581,-62L1808,248Z" fill="#a98bc1" stroke="#a98bc1" stroke-width="1.51"/><path d="M1581,-62L1572,215L1808,248Z" fill="#a288c0" stroke="#a288c0" stroke-width="1.51"/><path d="M1572,215L1736,392L1808,248Z" fill="#987fba" stroke="#987fba" stroke-width="1.51"/><path d="M1562,1273L1362,1353L1782,1420Z" fill="#7a2f83" stroke="#7a2f83" stroke-width="1.51"/><path d="M1556,1124L1693,1130L1764,907Z" fill="#883d99" stroke="#883d99" stroke-width="1.51"/><path d="M1720,-359L1484,-282L1721,-126Z" fill="#ba9aca" stroke="#ba9aca" stroke-width="1.51"/><path d="M1494,438L1587,615L1736,392Z" fill="#8f75b5" stroke="#8f75b5" stroke-width="1.51"/><path d="M1485,805L1556,1124L1764,907Z" fill="#8a4ba2" stroke="#8a4ba2" stroke-width="1.51"/><path d="M1484,-282L1581,-62L1721,-126Z" fill="#b69aca" stroke="#b69aca" stroke-width="1.51"/><path d="M1572,215L1494,438L1736,392Z" fill="#9580bb" stroke="#9580bb" stroke-width="1.51"/><path d="M1556,1124L1562,1273L1693,1130Z" fill="#863793" stroke="#863793" stroke-width="1.51"/><path d="M1485,805L1237,1037L1556,1124Z" fill="#8a52a5" stroke="#8a52a5" stroke-width="1.51"/><path d="M1370,365L1494,438L1572,215Z" fill="#9587bf" stroke="#9587bf" stroke-width="1.51"/><path d="M1484,-282L1309,-98L1581,-62Z" fill="#b6a1ce" stroke="#b6a1ce" stroke-width="1.51"/><path d="M1322,138L1572,215L1581,-62Z" fill="#a493c6" stroke="#a493c6" stroke-width="1.51"/><path d="M1309,-98L1322,138L1581,-62Z" fill="#ac9dcb" stroke="#ac9dcb" stroke-width="1.51"/><path d="M1494,438L1317,569L1587,615Z" fill="#8d78b7" stroke="#8d78b7" stroke-width="1.51"/><path d="M1317,569L1485,805L1587,615Z" fill="#8d6db1" stroke="#8d6db1" stroke-width="1.51"/><path d="M1223,980L1237,1037L1485,805Z" fill="#8b5daa" stroke="#8b5daa" stroke-width="1.51"/><path d="M1556,1124L1362,1353L1562,1273Z" fill="#863991" stroke="#863991" stroke-width="1.51"/><path d="M1322,138L1370,365L1572,215Z" fill="#9b90c4" stroke="#9b90c4" stroke-width="1.51"/><path d="M1237,1037L1362,1353L1556,1124Z" fill="#894699" stroke="#894699" stroke-width="1.51"/><path d="M1241,-246L1309,-98L1484,-282Z" fill="#b9a9d2" stroke="#b9a9d2" stroke-width="1.51"/><path d="M1370,365L1317,569L1494,438Z" fill="#9083bc" stroke="#9083bc" stroke-width="1.51"/><path d="M1317,569L1223,980L1485,805Z" fill="#8c69af" stroke="#8c69af" stroke-width="1.51"/><path d="M1104,584L1131,980L1223,980Z" fill="#8c6fb3" stroke="#8c6fb3" stroke-width="1.51"/><path d="M1104,584L1223,980L1317,569Z" fill="#8d77b7" stroke="#8d77b7" stroke-width="1.51"/><path d="M1237,1037L1037,1361L1362,1353Z" fill="#894b99" stroke="#894b99" stroke-width="1.51"/><path d="M1066,370L1317,569L1370,365Z" fill="#918dc2" stroke="#918dc2" stroke-width="1.51"/><path d="M1151,243L1066,370L1370,365Z" fill="#9599c8" stroke="#9599c8" stroke-width="1.51"/><path d="M1322,138L1151,243L1370,365Z" fill="#9a98c8" stroke="#9a98c8" stroke-width="1.51"/><path d="M1066,370L1104,584L1317,569Z" fill="#8e8dc1" stroke="#8e8dc1" stroke-width="1.51"/><path d="M1309,-98L1055,31L1322,138Z" fill="#aaa6cf" stroke="#aaa6cf" stroke-width="1.51"/><path d="M1106,1034L1037,1361L1237,1037Z" fill="#8b59a3" stroke="#8b59a3" stroke-width="1.51"/><path d="M1055,31L1151,243L1322,138Z" fill="#a2a3ce" stroke="#a2a3ce" stroke-width="1.51"/><path d="M1241,-246L1055,31L1309,-98Z" fill="#b2aed4" stroke="#b2aed4" stroke-width="1.51"/><path d="M844,737L917,945L1104,584Z" fill="#8d83bc" stroke="#8d83bc" stroke-width="1.51"/><path d="M935,1183L1037,1361L1106,1034Z" fill="#8b5ca2" stroke="#8b5ca2" stroke-width="1.51"/><path d="M1104,584L917,945L1131,980Z" fill="#8d76b6" stroke="#8d76b6" stroke-width="1.51"/><path d="M1000,-275L1055,31L1241,-246Z" fill="#b7b7d9" stroke="#b7b7d9" stroke-width="1.51"/><path d="M1223,980L1131,980L1237,1037Z" fill="#8b5fab" stroke="#8b5fab" stroke-width="1.51"/><path d="M1131,980L1106,1034L1237,1037Z" fill="#8c60ab" stroke="#8c60ab" stroke-width="1.51"/><path d="M1066,370L928,475L1104,584Z" fill="#8f96c6" stroke="#8f96c6" stroke-width="1.51"/><path d="M872,134L1066,370L1151,243Z" fill="#99a7cf" stroke="#99a7cf" stroke-width="1.51"/><path d="M1055,31L872,134L1151,243Z" fill="#a1add2" stroke="#a1add2" stroke-width="1.51"/><path d="M917,945L1106,1034L1131,980Z" fill="#8d6ab0" stroke="#8d6ab0" stroke-width="1.51"/><path d="M1000,-275L763,-91L1055,31Z" fill="#b3bedc" stroke="#b3bedc" stroke-width="1.51"/><path d="M928,475L844,737L1104,584Z" fill="#8d91c3" stroke="#8d91c3" stroke-width="1.51"/><path d="M917,945L935,1183L1106,1034Z" fill="#8c69ad" stroke="#8c69ad" stroke-width="1.51"/><path d="M872,134L928,475L1066,370Z" fill="#94a7cf" stroke="#94a7cf" stroke-width="1.51"/><path d="M839,-291L763,-91L1000,-275Z" fill="#bbc7e0" stroke="#bbc7e0" stroke-width="1.51"/><path d="M763,-91L872,134L1055,31Z" fill="#aabad9" stroke="#aabad9" stroke-width="1.51"/><path d="M935,1183L874,1424L1037,1361Z" fill="#835998" stroke="#835998" stroke-width="1.51"/><path d="M872,134L626,268L928,475Z" fill="#9ab1d5" stroke="#9ab1d5" stroke-width="1.51"/><path d="M285,-329L543,-191L839,-291Z" fill="#c7d9ea" stroke="#c7d9ea" stroke-width="1.51"/><path d="M601,481L663,729L844,737Z" fill="#939ac8" stroke="#939ac8" stroke-width="1.51"/><path d="M590,864L524,1208L917,945Z" fill="#957db9" stroke="#957db9" stroke-width="1.51"/><path d="M601,481L844,737L928,475Z" fill="#919dca" stroke="#919dca" stroke-width="1.51"/><path d="M626,268L601,481L928,475Z" fill="#97add2" stroke="#97add2" stroke-width="1.51"/><path d="M526,1268L874,1424L935,1183Z" fill="#8b63a0" stroke="#8b63a0" stroke-width="1.51"/><path d="M524,1208L526,1268L935,1183Z" fill="#956eaa" stroke="#956eaa" stroke-width="1.51"/><path d="M917,945L524,1208L935,1183Z" fill="#916faf" stroke="#916faf" stroke-width="1.51"/><path d="M844,737L590,864L917,945Z" fill="#9284bd" stroke="#9284bd" stroke-width="1.51"/><path d="M663,729L590,864L844,737Z" fill="#948fc3" stroke="#948fc3" stroke-width="1.51"/><path d="M763,-91L626,268L872,134Z" fill="#a9bedb" stroke="#a9bedb" stroke-width="1.51"/><path d="M526,1268L357,1374L874,1424Z" fill="#8a6a9e" stroke="#8a6a9e" stroke-width="1.51"/><path d="M543,-191L763,-91L839,-291Z" fill="#becfe5" stroke="#becfe5" stroke-width="1.51"/><path d="M530,-107L417,162L626,268Z" fill="#b0c8e1" stroke="#b0c8e1" stroke-width="1.51"/><path d="M530,-107L626,268L763,-91Z" fill="#b1c8e1" stroke="#b1c8e1" stroke-width="1.51"/><path d="M543,-191L530,-107L763,-91Z" fill="#bdd2e6" stroke="#bdd2e6" stroke-width="1.51"/><path d="M433,843L524,1208L590,864Z" fill="#9b86be" stroke="#9b86be" stroke-width="1.51"/><path d="M415,387L601,481L626,268Z" fill="#9eb8d8" stroke="#9eb8d8" stroke-width="1.51"/><path d="M433,843L590,864L663,729Z" fill="#9992c5" stroke="#9992c5" stroke-width="1.51"/><path d="M601,481L317,623L663,729Z" fill="#9aa5ce" stroke="#9aa5ce" stroke-width="1.51"/><path d="M317,623L433,843L663,729Z" fill="#9c9cca" stroke="#9c9cca" stroke-width="1.51"/><path d="M433,843L383,1192L524,1208Z" fill="#9e80b9" stroke="#9e80b9" stroke-width="1.51"/><path d="M417,162L415,387L626,268Z" fill="#a6c1dd" stroke="#a6c1dd" stroke-width="1.51"/><path d="M415,387L317,623L601,481Z" fill="#9eb2d5" stroke="#9eb2d5" stroke-width="1.51"/><path d="M371,-114L417,162L530,-107Z" fill="#bdd1e6" stroke="#bdd1e6" stroke-width="1.51"/><path d="M175,1300L-65,1313L357,1374Z" fill="#9f78a8" stroke="#9f78a8" stroke-width="1.51"/><path d="M371,-114L530,-107L543,-191Z" fill="#c3d6e8" stroke="#c3d6e8" stroke-width="1.51"/><path d="M285,-329L371,-114L543,-191Z" fill="#ccdceb" stroke="#ccdceb" stroke-width="1.51"/><path d="M524,1208L383,1192L526,1268Z" fill="#9c75ae" stroke="#9c75ae" stroke-width="1.51"/><path d="M383,1192L357,1374L526,1268Z" fill="#9a73a9" stroke="#9a73a9" stroke-width="1.51"/><path d="M181,819L74,1144L383,1192Z" fill="#a889bf" stroke="#a889bf" stroke-width="1.51"/><path d="M129,384L317,623L415,387Z" fill="#a7b9d8" stroke="#a7b9d8" stroke-width="1.51"/><path d="M205,115L129,384L415,387Z" fill="#b0c8e0" stroke="#b0c8e0" stroke-width="1.51"/><path d="M205,115L415,387L417,162Z" fill="#b1c8e0" stroke="#b1c8e0" stroke-width="1.51"/><path d="M371,-114L205,115L417,162Z" fill="#bdd1e5" stroke="#bdd1e5" stroke-width="1.51"/><path d="M181,819L383,1192L433,843Z" fill="#a38dc2" stroke="#a38dc2" stroke-width="1.51"/><path d="M317,623L181,819L433,843Z" fill="#a49dcb" stroke="#a49dcb" stroke-width="1.51"/><path d="M129,384L125,576L317,623Z" fill="#a9b7d8" stroke="#a9b7d8" stroke-width="1.51"/><path d="M285,-329L133,-68L371,-114Z" fill="#d0dfed" stroke="#d0dfed" stroke-width="1.51"/><path d="M133,-68L205,115L371,-114Z" fill="#c7d8e9" stroke="#c7d8e9" stroke-width="1.51"/><path d="M74,1144L175,1300L383,1192Z" fill="#a77db4" stroke="#a77db4" stroke-width="1.51"/><path d="M175,1300L357,1374L383,1192Z" fill="#9e76aa" stroke="#9e76aa" stroke-width="1.51"/><path d="M121,-375L133,-68L285,-329Z" fill="#d8e5f0" stroke="#d8e5f0" stroke-width="1.51"/><path d="M125,576L181,819L317,623Z" fill="#a8a9d1" stroke="#a8a9d1" stroke-width="1.51"/><path d="M-352,-359L-53,-280L121,-375Z" fill="#e9f2f7" stroke="#e9f2f7" stroke-width="1.51"/><path d="M121,-375L-53,-280L133,-68Z" fill="#dce8f2" stroke="#dce8f2" stroke-width="1.51"/><path d="M125,576L-106,653L181,819Z" fill="#afadd3" stroke="#afadd3" stroke-width="1.51"/><path d="M-57,1057L74,1144L181,819Z" fill="#af91c5" stroke="#af91c5" stroke-width="1.51"/><path d="M-76,180L129,384L205,115Z" fill="#bcd1e5" stroke="#bcd1e5" stroke-width="1.51"/><path d="M133,-68L-86,6L205,115Z" fill="#cbdceb" stroke="#cbdceb" stroke-width="1.51"/><path d="M-86,6L-76,180L205,115Z" fill="#c9daea" stroke="#c9daea" stroke-width="1.51"/><path d="M-158,898L-57,1057L181,819Z" fill="#b39bca" stroke="#b39bca" stroke-width="1.51"/><path d="M-106,653L-158,898L181,819Z" fill="#b3a6d0" stroke="#b3a6d0" stroke-width="1.51"/><path d="M74,1144L-65,1313L175,1300Z" fill="#ad80b3" stroke="#ad80b3" stroke-width="1.51"/><path d="M-89,363L-106,653L125,576Z" fill="#b3bedc" stroke="#b3bedc" stroke-width="1.51"/><path d="M-89,363L125,576L129,384Z" fill="#b3c3de" stroke="#b3c3de" stroke-width="1.51"/><path d="M-76,180L-89,363L129,384Z" fill="#bbd0e6" stroke="#bbd0e6" stroke-width="1.51"/><path d="M-53,-280L-86,6L133,-68Z" fill="#d8e6f1" stroke="#d8e6f1" stroke-width="1.51"/><path d="M-57,1057L-65,1313L74,1144Z" fill="#b288bb" stroke="#b288bb" stroke-width="1.51"/><path d="M-370,613L-106,653L-89,363Z" fill="#b9c1de" stroke="#b9c1de" stroke-width="1.51"/><path d="M-354,356L-370,613L-89,363Z" fill="#bfcce3" stroke="#bfcce3" stroke-width="1.51"/><path d="M-86,6L-258,181L-76,180Z" fill="#cedeec" stroke="#cedeec" stroke-width="1.51"/><path d="M-258,181L-89,363L-76,180Z" fill="#c5d8e9" stroke="#c5d8e9" stroke-width="1.51"/><path d="M-365,1099L-284,1277L-57,1057Z" fill="#b98fc0" stroke="#b98fc0" stroke-width="1.51"/><path d="M-284,1277L-65,1313L-57,1057Z" fill="#b688b9" stroke="#b688b9" stroke-width="1.51"/><path d="M-314,-53L-86,6L-53,-280Z" fill="#deeaf3" stroke="#deeaf3" stroke-width="1.51"/><path d="M-352,-359L-314,-53L-53,-280Z" fill="#e8f1f8" stroke="#e8f1f8" stroke-width="1.51"/><path d="M-158,898L-365,1099L-57,1057Z" fill="#b997c9" stroke="#b997c9" stroke-width="1.51"/><path d="M-370,613L-421,823L-158,898Z" fill="#bdaed5" stroke="#bdaed5" stroke-width="1.51"/><path d="M-370,613L-158,898L-106,653Z" fill="#bab1d6" stroke="#bab1d6" stroke-width="1.51"/><path d="M-258,181L-354,356L-89,363Z" fill="#c4d7e9" stroke="#c4d7e9" stroke-width="1.51"/><path d="M-314,-53L-258,181L-86,6Z" fill="#d6e4ef" stroke="#d6e4ef" stroke-width="1.51"/><path d="M-421,823L-365,1099L-158,898Z" fill="#bda1ce" stroke="#bda1ce" stroke-width="1.51"/><path d="M-314,-53L-354,356L-258,181Z" fill="#d0e0ed" stroke="#d0e0ed" stroke-width="1.51"/><path d="M-352,-359L-354,356L-314,-53Z" fill="#dee9f2" stroke="#dee9f2" stroke-width="1.51"/><path d="M-421,823L-354,356L-352,-359Z" fill="#cbdcec" stroke="#cbdcec" stroke-width="1.51"/><path d="M-421,823L-370,613L-354,356Z" fill="#c0c1de" stroke="#c0c1de" stroke-width="1.51"/></svg>