<svg xmlns="http://www.w3.org/2000/svg" width="1920" height="1080"><path d="M1049,1395L492,1411L1445,1415Z" fill="#734f89" stroke="#734f89" stroke-width="1.51"/><path d="M873,-339L1057,-273L1476,-241Z" fill="#beb9da" stroke="#beb9da" stroke-width="1.51"/><path d="M1476,-241L1534,-239L1837,-292Z" fill="#bd99c9" stroke="#bd99c9" stroke-width="1.51"/><path d="M873,-339L1476,-241L1837,-292Z" fill="#bea8d1" stroke="#bea8d1" stroke-width="1.51"/><path d="M1597,1399L1445,1415L1878,1405Z" fill="#6d2174" stroke="#6d2174" stroke-width="1.51"/><path d="M2067,405L1998,498L2097,645Z" fill="#805995" stroke="#805995" stroke-width="1.51"/><path d="M2128,763L1999,879L2134,972Z" fill="#773483" stroke="#773483" stroke-width="1.51"/><path d="M1837,-292L2008,-288L2160,-327Z" fill="#b486b2" stroke="#b486b2" stroke-width="1.51"/><path d="M873,-339L1837,-292L2160,-327Z" fill="#bf9aca" stroke="#bf9aca" stroke-width="1.51"/><path d="M2160,-327L2008,-288L2184,-64Z" fill="#a57ea6" stroke="#a57ea6" stroke-width="1.51"/><path d="M2008,-288L1958,-154L2184,-64Z" fill="#a87fab" stroke="#a87fab" stroke-width="1.51"/><path d="M2160,1199L1878,1405L2201,1384Z" fill="#650561" stroke="#650561" stroke-width="1.51"/><path d="M2134,972L2160,1199L2201,1384Z" fill="#6c0d69" stroke="#6c0d69" stroke-width="1.51"/><path d="M1953,231L2067,405L2202,314Z" fill="#87689c" stroke="#87689c" stroke-width="1.51"/><path d="M2142,76L1974,160L2202,314Z" fill="#8c6d9c" stroke="#8c6d9c" stroke-width="1.51"/><path d="M1974,160L1953,231L2202,314Z" fill="#8f6da0" stroke="#8f6da0" stroke-width="1.51"/><path d="M2097,645L2128,763L2202,314Z" fill="#76508b" stroke="#76508b" stroke-width="1.51"/><path d="M2067,405L2097,645L2202,314Z" fill="#7c5b92" stroke="#7c5b92" stroke-width="1.51"/><path d="M2184,-64L2142,76L2202,314Z" fill="#8b6d99" stroke="#8b6d99" stroke-width="1.51"/><path d="M2134,972L2201,1384L2202,314Z" fill="#6f2f7a" stroke="#6f2f7a" stroke-width="1.51"/><path d="M2128,763L2134,972L2202,314Z" fill="#744585" stroke="#744585" stroke-width="1.51"/><path d="M2134,972L1896,1097L2160,1199Z" fill="#751d78" stroke="#751d78" stroke-width="1.51"/><path d="M1958,-154L2142,76L2184,-64Z" fill="#9d78a4" stroke="#9d78a4" stroke-width="1.51"/><path d="M1962,951L1896,1097L2134,972Z" fill="#7d2884" stroke="#7d2884" stroke-width="1.51"/><path d="M1958,-154L1974,160L2142,76Z" fill="#9f78a8" stroke="#9f78a8" stroke-width="1.51"/><path d="M1896,1097L1878,1405L2160,1199Z" fill="#790c74" stroke="#790c74" stroke-width="1.51"/><path d="M1999,879L1962,951L2134,972Z" fill="#7b2f84" stroke="#7b2f84" stroke-width="1.51"/><path d="M1958,-154L1826,54L1974,160Z" fill="#a97db1" stroke="#a97db1" stroke-width="1.51"/><path d="M2097,645L1942,640L2128,763Z" fill="#7d488d" stroke="#7d488d" stroke-width="1.51"/><path d="M1942,640L1999,879L2128,763Z" fill="#7e418c" stroke="#7e418c" stroke-width="1.51"/><path d="M1998,498L1942,640L2097,645Z" fill="#825395" stroke="#825395" stroke-width="1.51"/><path d="M1953,231L1998,498L2067,405Z" fill="#8a669f" stroke="#8a669f" stroke-width="1.51"/><path d="M1770,1363L1878,1405L1896,1097Z" fill="#791377" stroke="#791377" stroke-width="1.51"/><path d="M1836,-138L1826,54L1958,-154Z" fill="#b184b7" stroke="#b184b7" stroke-width="1.51"/><path d="M1953,231L1708,394L1998,498Z" fill="#946ca9" stroke="#946ca9" stroke-width="1.51"/><path d="M1942,640L1797,853L1999,879Z" fill="#884295" stroke="#884295" stroke-width="1.51"/><path d="M1837,-292L1958,-154L2008,-288Z" fill="#b787b6" stroke="#b787b6" stroke-width="1.51"/><path d="M1828,929L1962,951L1999,879Z" fill="#84348d" stroke="#84348d" stroke-width="1.51"/><path d="M1797,853L1828,929L1999,879Z" fill="#873a92" stroke="#873a92" stroke-width="1.51"/><path d="M1708,1195L1770,1363L1896,1097Z" fill="#821c81" stroke="#821c81" stroke-width="1.51"/><path d="M1801,196L1708,394L1953,231Z" fill="#9976b0" stroke="#9976b0" stroke-width="1.51"/><path d="M1708,394L1942,640L1998,498Z" fill="#8d60a3" stroke="#8d60a3" stroke-width="1.51"/><path d="M1770,1363L1597,1399L1878,1405Z" fill="#6e1970" stroke="#6e1970" stroke-width="1.51"/><path d="M1723,678L1797,853L1942,640Z" fill="#894e9d" stroke="#894e9d" stroke-width="1.51"/><path d="M1708,394L1723,678L1942,640Z" fill="#8c5fa5" stroke="#8c5fa5" stroke-width="1.51"/><path d="M1837,-292L1836,-138L1958,-154Z" fill="#b888b9" stroke="#b888b9" stroke-width="1.51"/><path d="M1828,929L1896,1097L1962,951Z" fill="#852d8d" stroke="#852d8d" stroke-width="1.51"/><path d="M1801,196L1953,231L1974,160Z" fill="#9e75ad" stroke="#9e75ad" stroke-width="1.51"/><path d="M1826,54L1801,196L1974,160Z" fill="#a27ab1" stroke="#a27ab1" stroke-width="1.51"/><path d="M1828,929L1628,1063L1896,1097Z" fill="#863190" stroke="#863190" stroke-width="1.51"/><path d="M1628,1063L1708,1195L1896,1097Z" fill="#852b8b" stroke="#852b8b" stroke-width="1.51"/><path d="M1708,394L1647,639L1723,678Z" fill="#8c65aa" stroke="#8c65aa" stroke-width="1.51"/><path d="M1611,49L1801,196L1826,54Z" fill="#a582b8" stroke="#a582b8" stroke-width="1.51"/><path d="M1611,49L1826,54L1836,-138Z" fill="#ad87bb" stroke="#ad87bb" stroke-width="1.51"/><path d="M1569,-60L1611,49L1836,-138Z" fill="#b08dc1" stroke="#b08dc1" stroke-width="1.51"/><path d="M1534,-239L1569,-60L1836,-138Z" fill="#b794c5" stroke="#b794c5" stroke-width="1.51"/><path d="M1534,-239L1836,-138L1837,-292Z" fill="#ba91c2" stroke="#ba91c2" stroke-width="1.51"/><path d="M1797,853L1628,1063L1828,929Z" fill="#873b96" stroke="#873b96" stroke-width="1.51"/><path d="M1612,409L1647,639L1708,394Z" fill="#8f6fb0" stroke="#8f6fb0" stroke-width="1.51"/><path d="M1723,678L1560,798L1797,853Z" fill="#8a50a1" stroke="#8a50a1" stroke-width="1.51"/><path d="M1560,798L1628,1063L1797,853Z" fill="#89459d" stroke="#89459d" stroke-width="1.51"/><path d="M1560,255L1708,394L1801,196Z" fill="#997cb7" stroke="#997cb7" stroke-width="1.51"/><path d="M1611,49L1560,255L1801,196Z" fill="#a184bc" stroke="#a184bc" stroke-width="1.51"/><path d="M1708,1195L1597,1399L1770,1363Z" fill="#77207b" stroke="#77207b" stroke-width="1.51"/><path d="M1560,798L1453,938L1628,1063Z" fill="#894aa1" stroke="#894aa1" stroke-width="1.51"/><path d="M1628,1063L1602,1192L1708,1195Z" fill="#852f8e" stroke="#852f8e" stroke-width="1.51"/><path d="M1602,1192L1597,1399L1708,1195Z" fill="#7f2784" stroke="#7f2784" stroke-width="1.51"/><path d="M1560,255L1612,409L1708,394Z" fill="#957bb8" stroke="#957bb8" stroke-width="1.51"/><path d="M1647,639L1560,798L1723,678Z" fill="#8b5aa7" stroke="#8b5aa7" stroke-width="1.51"/><path d="M140,-334L507,-277L873,-339Z" fill="#d0dfed" stroke="#d0dfed" stroke-width="1.51"/><path d="M1057,-273L1181,-207L1476,-241Z" fill="#bcb0d5" stroke="#bcb0d5" stroke-width="1.51"/><path d="M1480,210L1560,255L1611,49Z" fill="#a18ac1" stroke="#a18ac1" stroke-width="1.51"/><path d="M1481,758L1560,798L1647,639Z" fill="#8b5ca9" stroke="#8b5ca9" stroke-width="1.51"/><path d="M1458,591L1481,758L1647,639Z" fill="#8c65ae" stroke="#8c65ae" stroke-width="1.51"/><path d="M1612,409L1458,591L1647,639Z" fill="#8c6eb1" stroke="#8c6eb1" stroke-width="1.51"/><path d="M1445,1415L1597,1399L1602,1192Z" fill="#772b80" stroke="#772b80" stroke-width="1.51"/><path d="M1425,120L1480,210L1611,49Z" fill="#a48ec3" stroke="#a48ec3" stroke-width="1.51"/><path d="M1365,1116L1602,1192L1628,1063Z" fill="#873a95" stroke="#873a95" stroke-width="1.51"/><path d="M1453,938L1365,1116L1628,1063Z" fill="#89449d" stroke="#89449d" stroke-width="1.51"/><path d="M1365,1116L1445,1415L1602,1192Z" fill="#83358d" stroke="#83358d" stroke-width="1.51"/><path d="M1569,-60L1445,-27L1611,49Z" fill="#ae93c6" stroke="#ae93c6" stroke-width="1.51"/><path d="M1560,255L1348,456L1612,409Z" fill="#9480bb" stroke="#9480bb" stroke-width="1.51"/><path d="M1348,456L1458,591L1612,409Z" fill="#8f79b7" stroke="#8f79b7" stroke-width="1.51"/><path d="M1445,-27L1425,120L1611,49Z" fill="#aa93c6" stroke="#aa93c6" stroke-width="1.51"/><path d="M1534,-239L1476,-241L1569,-60Z" fill="#b99bcb" stroke="#b99bcb" stroke-width="1.51"/><path d="M1480,210L1348,456L1560,255Z" fill="#9788bf" stroke="#9788bf" stroke-width="1.51"/><path d="M1242,1346L1049,1395L1445,1415Z" fill="#743f84" stroke="#743f84" stroke-width="1.51"/><path d="M1481,758L1453,938L1560,798Z" fill="#8b57a7" stroke="#8b57a7" stroke-width="1.51"/><path d="M1476,-241L1445,-27L1569,-60Z" fill="#b59bca" stroke="#b59bca" stroke-width="1.51"/><path d="M1365,1116L1242,1346L1445,1415Z" fill="#7e3c8b" stroke="#7e3c8b" stroke-width="1.51"/><path d="M1181,-207L1211,-21L1445,-27Z" fill="#b3a7d1" stroke="#b3a7d1" stroke-width="1.51"/><path d="M1181,-207L1445,-27L1476,-241Z" fill="#b7a5d0" stroke="#b7a5d0" stroke-width="1.51"/><path d="M1266,219L1348,456L1480,210Z" fill="#988fc3" stroke="#988fc3" stroke-width="1.51"/><path d="M1208,839L1453,938L1481,758Z" fill="#8b5eaa" stroke="#8b5eaa" stroke-width="1.51"/><path d="M1263,618L1208,839L1481,758Z" fill="#8c6bb0" stroke="#8c6bb0" stroke-width="1.51"/><path d="M1458,591L1263,618L1481,758Z" fill="#8c6eb2" stroke="#8c6eb2" stroke-width="1.51"/><path d="M1425,120L1266,219L1480,210Z" fill="#a092c5" stroke="#a092c5" stroke-width="1.51"/><path d="M1276,1128L1242,1346L1365,1116Z" fill="#894597" stroke="#894597" stroke-width="1.51"/><path d="M1294,96L1425,120L1445,-27Z" fill="#a999c9" stroke="#a999c9" stroke-width="1.51"/><path d="M1192,1039L1365,1116L1453,938Z" fill="#8a4fa2" stroke="#8a4fa2" stroke-width="1.51"/><path d="M1348,456L1277,513L1458,591Z" fill="#8e7dba" stroke="#8e7dba" stroke-width="1.51"/><path d="M1277,513L1263,618L1458,591Z" fill="#8d7ab8" stroke="#8d7ab8" stroke-width="1.51"/><path d="M1208,839L1192,1039L1453,938Z" fill="#8b5ba9" stroke="#8b5ba9" stroke-width="1.51"/><path d="M1211,-21L1294,96L1445,-27Z" fill="#aca0cc" stroke="#aca0cc" stroke-width="1.51"/><path d="M1294,96L1266,219L1425,120Z" fill="#a398c8" stroke="#a398c8" stroke-width="1.51"/><path d="M1266,219L1277,513L1348,456Z" fill="#938bc1" stroke="#938bc1" stroke-width="1.51"/><path d="M1192,1039L1276,1128L1365,1116Z" fill="#8a4f9f" stroke="#8a4f9f" stroke-width="1.51"/><path d="M1266,219L1070,497L1277,513Z" fill="#9390c4" stroke="#9390c4" stroke-width="1.51"/><path d="M1001,208L1070,497L1266,219Z" fill="#979fcb" stroke="#979fcb" stroke-width="1.51"/><path d="M979,1172L1242,1346L1276,1128Z" fill="#8a4d9a" stroke="#8a4d9a" stroke-width="1.51"/><path d="M1001,208L1266,219L1294,96Z" fill="#a1a0cc" stroke="#a1a0cc" stroke-width="1.51"/><path d="M1211,-21L1001,208L1294,96Z" fill="#a6a6cf" stroke="#a6a6cf" stroke-width="1.51"/><path d="M1001,30L1001,208L1211,-21Z" fill="#a8add3" stroke="#a8add3" stroke-width="1.51"/><path d="M1013,606L1208,839L1263,618Z" fill="#8d7bb8" stroke="#8d7bb8" stroke-width="1.51"/><path d="M1192,1039L979,1172L1276,1128Z" fill="#8b56a2" stroke="#8b56a2" stroke-width="1.51"/><path d="M1070,497L1263,618L1277,513Z" fill="#8d85be" stroke="#8d85be" stroke-width="1.51"/><path d="M1013,606L1066,856L1208,839Z" fill="#8d78b7" stroke="#8d78b7" stroke-width="1.51"/><path d="M979,1172L1049,1395L1242,1346Z" fill="#804e91" stroke="#804e91" stroke-width="1.51"/><path d="M1070,497L1013,606L1263,618Z" fill="#8d89bf" stroke="#8d89bf" stroke-width="1.51"/><path d="M1066,856L1036,1001L1192,1039Z" fill="#8c66ae" stroke="#8c66ae" stroke-width="1.51"/><path d="M1066,856L1192,1039L1208,839Z" fill="#8c67ae" stroke="#8c67ae" stroke-width="1.51"/><path d="M1181,-207L1061,-161L1211,-21Z" fill="#b6b2d6" stroke="#b6b2d6" stroke-width="1.51"/><path d="M735,1305L492,1411L1049,1395Z" fill="#7f6094" stroke="#7f6094" stroke-width="1.51"/><path d="M1036,1001L979,1172L1192,1039Z" fill="#8c60a8" stroke="#8c60a8" stroke-width="1.51"/><path d="M1061,-161L1001,30L1211,-21Z" fill="#b1b3d6" stroke="#b1b3d6" stroke-width="1.51"/><path d="M1057,-273L1061,-161L1181,-207Z" fill="#bbb9da" stroke="#bbb9da" stroke-width="1.51"/><path d="M896,618L889,832L1013,606Z" fill="#8e8ac0" stroke="#8e8ac0" stroke-width="1.51"/><path d="M901,1137L979,1172L1036,1001Z" fill="#8c64a8" stroke="#8c64a8" stroke-width="1.51"/><path d="M820,1281L735,1305L1049,1395Z" fill="#815c96" stroke="#815c96" stroke-width="1.51"/><path d="M979,1172L820,1281L1049,1395Z" fill="#845999" stroke="#845999" stroke-width="1.51"/><path d="M1057,-273L873,-339L1061,-161Z" fill="#bdc2de" stroke="#bdc2de" stroke-width="1.51"/><path d="M800,-21L1001,30L1061,-161Z" fill="#b0bcda" stroke="#b0bcda" stroke-width="1.51"/><path d="M889,832L1036,1001L1066,856Z" fill="#8c73b4" stroke="#8c73b4" stroke-width="1.51"/><path d="M1013,606L889,832L1066,856Z" fill="#8d7fba" stroke="#8d7fba" stroke-width="1.51"/><path d="M909,263L820,450L1070,497Z" fill="#93a3cd" stroke="#93a3cd" stroke-width="1.51"/><path d="M896,618L1013,606L1070,497Z" fill="#8c91c3" stroke="#8c91c3" stroke-width="1.51"/><path d="M820,450L896,618L1070,497Z" fill="#8e9ac8" stroke="#8e9ac8" stroke-width="1.51"/><path d="M1001,208L909,263L1070,497Z" fill="#95a6ce" stroke="#95a6ce" stroke-width="1.51"/><path d="M873,-339L748,-226L1061,-161Z" fill="#bec8e1" stroke="#bec8e1" stroke-width="1.51"/><path d="M748,-226L800,-21L1061,-161Z" fill="#b9c6e0" stroke="#b9c6e0" stroke-width="1.51"/><path d="M889,832L828,1002L1036,1001Z" fill="#8e74b5" stroke="#8e74b5" stroke-width="1.51"/><path d="M828,1002L901,1137L1036,1001Z" fill="#8e6cae" stroke="#8e6cae" stroke-width="1.51"/><path d="M811,18L909,263L1001,208Z" fill="#a2b3d5" stroke="#a2b3d5" stroke-width="1.51"/><path d="M811,18L1001,208L1001,30Z" fill="#a7b6d6" stroke="#a7b6d6" stroke-width="1.51"/><path d="M800,-21L811,18L1001,30Z" fill="#aebedc" stroke="#aebedc" stroke-width="1.51"/><path d="M901,1137L820,1281L979,1172Z" fill="#8e61a4" stroke="#8e61a4" stroke-width="1.51"/><path d="M658,629L634,839L889,832Z" fill="#948fc3" stroke="#948fc3" stroke-width="1.51"/><path d="M658,629L889,832L896,618Z" fill="#9190c3" stroke="#9190c3" stroke-width="1.51"/><path d="M811,18L711,33L909,263Z" fill="#a9bcda" stroke="#a9bcda" stroke-width="1.51"/><path d="M711,33L732,338L909,263Z" fill="#a2b9d8" stroke="#a2b9d8" stroke-width="1.51"/><path d="M732,338L820,450L909,263Z" fill="#98aed3" stroke="#98aed3" stroke-width="1.51"/><path d="M687,950L828,1002L889,832Z" fill="#927cb9" stroke="#927cb9" stroke-width="1.51"/><path d="M820,450L658,629L896,618Z" fill="#919dca" stroke="#919dca" stroke-width="1.51"/><path d="M828,1002L697,1131L901,1137Z" fill="#916faf" stroke="#916faf" stroke-width="1.51"/><path d="M697,1131L820,1281L901,1137Z" fill="#9168a8" stroke="#9168a8" stroke-width="1.51"/><path d="M507,-277L748,-226L873,-339Z" fill="#c5d4e8" stroke="#c5d4e8" stroke-width="1.51"/><path d="M748,-226L680,-132L800,-21Z" fill="#bccde4" stroke="#bccde4" stroke-width="1.51"/><path d="M634,839L687,950L889,832Z" fill="#9485bd" stroke="#9485bd" stroke-width="1.51"/><path d="M711,33L577,311L732,338Z" fill="#a4bfdb" stroke="#a4bfdb" stroke-width="1.51"/><path d="M732,338L712,376L820,450Z" fill="#98afd3" stroke="#98afd3" stroke-width="1.51"/><path d="M712,376L658,629L820,450Z" fill="#95a8d0" stroke="#95a8d0" stroke-width="1.51"/><path d="M697,1131L735,1305L820,1281Z" fill="#8f68a4" stroke="#8f68a4" stroke-width="1.51"/><path d="M687,950L697,1131L828,1002Z" fill="#9478b5" stroke="#9478b5" stroke-width="1.51"/><path d="M197,1311L-201,1392L492,1411Z" fill="#9976a0" stroke="#9976a0" stroke-width="1.51"/><path d="M800,-21L711,33L811,18Z" fill="#b1c4df" stroke="#b1c4df" stroke-width="1.51"/><path d="M680,-132L711,33L800,-21Z" fill="#b6c9e2" stroke="#b6c9e2" stroke-width="1.51"/><path d="M569,671L634,839L658,629Z" fill="#9899c8" stroke="#9899c8" stroke-width="1.51"/><path d="M533,48L577,311L711,33Z" fill="#aec7df" stroke="#aec7df" stroke-width="1.51"/><path d="M511,512L658,629L712,376Z" fill="#98acd2" stroke="#98acd2" stroke-width="1.51"/><path d="M507,-277L680,-132L748,-226Z" fill="#c3d6e8" stroke="#c3d6e8" stroke-width="1.51"/><path d="M687,950L535,1038L697,1131Z" fill="#977cb8" stroke="#977cb8" stroke-width="1.51"/><path d="M697,1131L449,1176L735,1305Z" fill="#9771ac" stroke="#9771ac" stroke-width="1.51"/><path d="M449,1176L492,1411L735,1305Z" fill="#8f6da2" stroke="#8f6da2" stroke-width="1.51"/><path d="M680,-132L533,48L711,33Z" fill="#b7cde4" stroke="#b7cde4" stroke-width="1.51"/><path d="M577,311L712,376L732,338Z" fill="#9cb8d8" stroke="#9cb8d8" stroke-width="1.51"/><path d="M577,311L511,512L712,376Z" fill="#9db6d7" stroke="#9db6d7" stroke-width="1.51"/><path d="M634,839L583,853L687,950Z" fill="#978ac0" stroke="#978ac0" stroke-width="1.51"/><path d="M535,1038L449,1176L697,1131Z" fill="#9b7ab3" stroke="#9b7ab3" stroke-width="1.51"/><path d="M448,-124L533,48L680,-132Z" fill="#bfd4e6" stroke="#bfd4e6" stroke-width="1.51"/><path d="M583,853L535,1038L687,950Z" fill="#9985be" stroke="#9985be" stroke-width="1.51"/><path d="M507,-277L448,-124L680,-132Z" fill="#c7d9ea" stroke="#c7d9ea" stroke-width="1.51"/><path d="M569,671L583,853L634,839Z" fill="#9993c5" stroke="#9993c5" stroke-width="1.51"/><path d="M511,512L569,671L658,629Z" fill="#99a5ce" stroke="#99a5ce" stroke-width="1.51"/><path d="M-37,1320L-201,1392L197,1311Z" fill="#a57ea8" stroke="#a57ea8" stroke-width="1.51"/><path d="M140,-334L338,-220L507,-277Z" fill="#d7e4f0" stroke="#d7e4f0" stroke-width="1.51"/><path d="M324,676L374,866L569,671Z" fill="#a19dcb" stroke="#a19dcb" stroke-width="1.51"/><path d="M345,513L511,512L577,311Z" fill="#a2b7d7" stroke="#a2b7d7" stroke-width="1.51"/><path d="M533,48L280,162L577,311Z" fill="#b2c9e1" stroke="#b2c9e1" stroke-width="1.51"/><path d="M280,162L269,223L577,311Z" fill="#b2cae1" stroke="#b2cae1" stroke-width="1.51"/><path d="M569,671L374,866L583,853Z" fill="#9e95c6" stroke="#9e95c6" stroke-width="1.51"/><path d="M374,866L535,1038L583,853Z" fill="#9f8bc1" stroke="#9f8bc1" stroke-width="1.51"/><path d="M269,223L345,513L577,311Z" fill="#aac2dd" stroke="#aac2dd" stroke-width="1.51"/><path d="M511,512L324,676L569,671Z" fill="#9fa8d0" stroke="#9fa8d0" stroke-width="1.51"/><path d="M449,1176L266,1276L492,1411Z" fill="#9873a6" stroke="#9873a6" stroke-width="1.51"/><path d="M345,513L324,676L511,512Z" fill="#a2afd3" stroke="#a2afd3" stroke-width="1.51"/><path d="M448,-124L318,-81L533,48Z" fill="#c4d7e8" stroke="#c4d7e8" stroke-width="1.51"/><path d="M316,968L449,1176L535,1038Z" fill="#a181ba" stroke="#a181ba" stroke-width="1.51"/><path d="M374,866L316,968L535,1038Z" fill="#a38bc1" stroke="#a38bc1" stroke-width="1.51"/><path d="M318,-81L280,162L533,48Z" fill="#c0d4e6" stroke="#c0d4e6" stroke-width="1.51"/><path d="M338,-220L448,-124L507,-277Z" fill="#cedeec" stroke="#cedeec" stroke-width="1.51"/><path d="M266,1276L197,1311L492,1411Z" fill="#9673a2" stroke="#9673a2" stroke-width="1.51"/><path d="M338,-220L318,-81L448,-124Z" fill="#cedeed" stroke="#cedeed" stroke-width="1.51"/><path d="M316,968L264,1233L449,1176Z" fill="#a580b7" stroke="#a580b7" stroke-width="1.51"/><path d="M264,1233L266,1276L449,1176Z" fill="#a479ae" stroke="#a479ae" stroke-width="1.51"/><path d="M183,962L106,1143L264,1233Z" fill="#ad86bb" stroke="#ad86bb" stroke-width="1.51"/><path d="M183,962L264,1233L316,968Z" fill="#aa89be" stroke="#aa89be" stroke-width="1.51"/><path d="M269,223L81,413L345,513Z" fill="#b1c5df" stroke="#b1c5df" stroke-width="1.51"/><path d="M324,676L185,790L374,866Z" fill="#a99fcc" stroke="#a99fcc" stroke-width="1.51"/><path d="M185,790L316,968L374,866Z" fill="#a996c7" stroke="#a996c7" stroke-width="1.51"/><path d="M179,221L81,413L269,223Z" fill="#b9cfe5" stroke="#b9cfe5" stroke-width="1.51"/><path d="M185,790L183,962L316,968Z" fill="#ac95c7" stroke="#ac95c7" stroke-width="1.51"/><path d="M100,103L280,162L318,-81Z" fill="#c6d8e9" stroke="#c6d8e9" stroke-width="1.51"/><path d="M184,-148L318,-81L338,-220Z" fill="#d3e2ee" stroke="#d3e2ee" stroke-width="1.51"/><path d="M81,413L149,577L345,513Z" fill="#afbdda" stroke="#afbdda" stroke-width="1.51"/><path d="M149,577L324,676L345,513Z" fill="#a9b2d5" stroke="#a9b2d5" stroke-width="1.51"/><path d="M184,-148L100,103L318,-81Z" fill="#d0dfed" stroke="#d0dfed" stroke-width="1.51"/><path d="M140,-334L184,-148L338,-220Z" fill="#dae7f1" stroke="#dae7f1" stroke-width="1.51"/><path d="M149,577L185,790L324,676Z" fill="#acabd2" stroke="#acabd2" stroke-width="1.51"/><path d="M179,221L269,223L280,162Z" fill="#bcd0e5" stroke="#bcd0e5" stroke-width="1.51"/><path d="M100,103L179,221L280,162Z" fill="#c2d5e7" stroke="#c2d5e7" stroke-width="1.51"/><path d="M-225,-330L-13,-276L140,-334Z" fill="#ebf3f8" stroke="#ebf3f8" stroke-width="1.51"/><path d="M264,1233L197,1311L266,1276Z" fill="#a279ab" stroke="#a279ab" stroke-width="1.51"/><path d="M106,1143L197,1311L264,1233Z" fill="#ab7eb1" stroke="#ab7eb1" stroke-width="1.51"/><path d="M-4,591L-43,738L149,577Z" fill="#b6b6d8" stroke="#b6b6d8" stroke-width="1.51"/><path d="M23,1113L106,1143L183,962Z" fill="#b28dc0" stroke="#b28dc0" stroke-width="1.51"/><path d="M-23,-137L100,103L184,-148Z" fill="#d6e5f0" stroke="#d6e5f0" stroke-width="1.51"/><path d="M140,-334L-13,-276L184,-148Z" fill="#e2ecf4" stroke="#e2ecf4" stroke-width="1.51"/><path d="M149,577L-43,738L185,790Z" fill="#b2add3" stroke="#b2add3" stroke-width="1.51"/><path d="M-34,974L183,962L185,790Z" fill="#b29aca" stroke="#b29aca" stroke-width="1.51"/><path d="M-43,738L-34,974L185,790Z" fill="#b6a3cf" stroke="#b6a3cf" stroke-width="1.51"/><path d="M106,1143L-37,1320L197,1311Z" fill="#ac80b0" stroke="#ac80b0" stroke-width="1.51"/><path d="M1,395L81,413L179,221Z" fill="#bacee5" stroke="#bacee5" stroke-width="1.51"/><path d="M-78,274L1,395L179,221Z" fill="#c0d4e7" stroke="#c0d4e7" stroke-width="1.51"/><path d="M-34,974L23,1113L183,962Z" fill="#b493c5" stroke="#b493c5" stroke-width="1.51"/><path d="M-13,-276L-23,-137L184,-148Z" fill="#e0ecf4" stroke="#e0ecf4" stroke-width="1.51"/><path d="M-23,-137L-37,87L100,103Z" fill="#d5e3ef" stroke="#d5e3ef" stroke-width="1.51"/><path d="M100,103L-78,274L179,221Z" fill="#c5d8e9" stroke="#c5d8e9" stroke-width="1.51"/><path d="M81,413L-4,591L149,577Z" fill="#b4bfdc" stroke="#b4bfdc" stroke-width="1.51"/><path d="M-37,87L-78,274L100,103Z" fill="#ccdcec" stroke="#ccdcec" stroke-width="1.51"/><path d="M23,1113L-37,1320L106,1143Z" fill="#b486b8" stroke="#b486b8" stroke-width="1.51"/><path d="M1,395L-4,591L81,413Z" fill="#b9c6e0" stroke="#b9c6e0" stroke-width="1.51"/><path d="M-196,-94L-151,85L-37,87Z" fill="#d9e6f1" stroke="#d9e6f1" stroke-width="1.51"/><path d="M-43,738L-172,923L-34,974Z" fill="#baa3cf" stroke="#baa3cf" stroke-width="1.51"/><path d="M-196,-94L-37,87L-23,-137Z" fill="#dde9f3" stroke="#dde9f3" stroke-width="1.51"/><path d="M-240,415L-4,591L1,395Z" fill="#bdc9e1" stroke="#bdc9e1" stroke-width="1.51"/><path d="M-34,974L-175,1172L23,1113Z" fill="#b891c2" stroke="#b891c2" stroke-width="1.51"/><path d="M-175,1172L-37,1320L23,1113Z" fill="#b888b9" stroke="#b888b9" stroke-width="1.51"/><path d="M-151,85L-78,274L-37,87Z" fill="#cfdfed" stroke="#cfdfed" stroke-width="1.51"/><path d="M-196,-94L-23,-137L-13,-276Z" fill="#e5eff6" stroke="#e5eff6" stroke-width="1.51"/><path d="M-279,575L-43,738L-4,591Z" fill="#bbbada" stroke="#bbbada" stroke-width="1.51"/><path d="M-240,415L-279,575L-4,591Z" fill="#bec6e0" stroke="#bec6e0" stroke-width="1.51"/><path d="M-78,274L-240,415L1,395Z" fill="#c2d3e7" stroke="#c2d3e7" stroke-width="1.51"/><path d="M-225,-330L-196,-94L-13,-276Z" fill="#ebf3f8" stroke="#ebf3f8" stroke-width="1.51"/><path d="M-236,788L-172,923L-43,738Z" fill="#bca9d2" stroke="#bca9d2" stroke-width="1.51"/><path d="M-172,923L-175,1172L-34,974Z" fill="#bb97c8" stroke="#bb97c8" stroke-width="1.51"/><path d="M-279,575L-236,788L-43,738Z" fill="#beb5d8" stroke="#beb5d8" stroke-width="1.51"/><path d="M-151,85L-227,217L-78,274Z" fill="#cedeed" stroke="#cedeed" stroke-width="1.51"/><path d="M-175,1172L-201,1392L-37,1320Z" fill="#af84af" stroke="#af84af" stroke-width="1.51"/><path d="M-227,217L-240,415L-78,274Z" fill="#c7d9ea" stroke="#c7d9ea" stroke-width="1.51"/><path d="M-196,-94L-227,217L-151,85Z" fill="#d9e5f0" stroke="#d9e5f0" stroke-width="1.51"/><path d="M-236,788L-175,1172L-172,923Z" fill="#be9ecd" stroke="#be9ecd" stroke-width="1.51"/><path d="M-236,788L-201,1392L-175,1172Z" fill="#bd91c1" stroke="#bd91c1" stroke-width="1.51"/><path d="M-225,-330L-227,217L-196,-94Z" fill="#e4eef5" stroke="#e4eef5" stroke-width="1.51"/><path d="M-236,788L-279,575L-201,1392Z" fill="#c0a2cf" stroke="#c0a2cf" stroke-width="1.51"/><path d="M-279,575L-227,217L-225,-330Z" fill="#d5e2ef" stroke="#d5e2ef" stroke-width="1.51"/><path d="M-279,575L-240,415L-227,217Z" fill="#c5d2e7" stroke="#c5d2e7" stroke-width="1.51"/></svg>